# xmcd
#
# Track frame offsets: 
#        150
#        12618
#        48165
#        77607
#        101607
#        128700
#        153105
#        158275
#        181340
#        203910
#        226648
#        247383
#
# Disc length: 3690 seconds
#
# Revision: 7
# Processed by: cddbd v1.5.2PL0 Copyright (c) Steve Scherf et al.
# Submitted via: ExactAudioCopy v0.95b4
#
DISCID=880e680c
DTITLE=TMN - TMN CLASSIX 1
DYEAR=1993
DGENRE=Pop
TTITLE0=Channel '93
TTITLE1=Dive Into Your Body (extended 12' Version mix)
TTITLE2=Get Wild (techno overdub mix)
TTITLE3=We Love The Earth (single overdub mix)
TTITLE4=Rhythm Red Beat Black (house sample foods mix)
TTITLE5=Just Like Paradise (expo overdub mix)
TTITLE6=Interval
TTITLE7=Ano Natsu o Wasurenai (motion picture mix)
TTITLE8=Human System (cafe de paris mix)
TTITLE9=Confession (promotion mix)
TTITLE10=Telephone Line (lover's mix)
TTITLE11=The Point of Lovers' Night (rhythm red version)
EXTD=YEAR: 1993
EXTT0=
EXTT1=
EXTT2=
EXTT3=
EXTT4=
EXTT5=
EXTT6=
EXTT7=
EXTT8=
EXTT9=
EXTT10=
EXTT11=
PLAYORDER=
